<?xml version="1.0" standalone="no"?>
<!DOCTYPE svg PUBLIC "-//W3C//DTD SVG 20010904//EN"
 "http://www.w3.org/TR/2001/REC-SVG-20010904/DTD/svg10.dtd">
<svg version="1.0" xmlns="http://www.w3.org/2000/svg"
 width="992.000000pt" height="992.000000pt" viewBox="0 0 992.000000 992.000000"
 preserveAspectRatio="xMidYMid meet">
<metadata>
Created by potrace 1.14, written by Peter Selinger 2001-2017
</metadata>
<g transform="translate(0.000000,992.000000) scale(0.100000,-0.100000)"
fill="#000000" stroke="none">
<path d="M5780 9164 c-41 -15 -78 -32 -82 -38 -4 -6 -8 -8 -8 -5 0 4 -33 -7
-72 -23 -174 -71 -598 -192 -748 -213 -14 -2 -25 -4 -25 -5 0 -2 -18 -6 -60
-14 -16 -3 -55 -10 -85 -16 -30 -6 -66 -13 -80 -16 -14 -2 -47 -9 -75 -14 -44
-8 -85 -15 -150 -25 -11 -2 -35 -6 -52 -9 -18 -3 -48 -9 -65 -12 -18 -3 -42
-7 -53 -8 -11 -2 -33 -6 -50 -9 -16 -4 -46 -9 -65 -11 -19 -3 -46 -8 -60 -11
-14 -3 -38 -7 -55 -10 -35 -5 -62 -10 -168 -31 -42 -8 -90 -17 -105 -20 -15
-3 -34 -7 -42 -9 -8 -2 -28 -7 -45 -10 -16 -2 -41 -7 -55 -10 -14 -3 -34 -8
-45 -11 -11 -2 -47 -11 -80 -19 -72 -18 -93 -23 -123 -29 -12 -3 -26 -7 -30
-10 -5 -3 -19 -7 -33 -10 -80 -15 -378 -123 -523 -190 -39 -18 -75 -33 -80
-34 -5 0 -12 -5 -15 -10 -3 -5 -26 -19 -51 -31 -45 -21 -81 -42 -90 -51 -3 -3
-21 -14 -40 -24 -148 -83 -412 -315 -530 -466 -19 -25 -37 -47 -40 -50 -28
-23 -183 -271 -235 -375 -11 -22 -24 -43 -30 -47 -5 -4 -7 -8 -3 -8 4 0 -11
-38 -33 -85 -21 -47 -39 -92 -39 -100 0 -8 -4 -15 -8 -15 -5 0 -9 -6 -9 -12
-1 -7 -10 -37 -21 -65 -11 -29 -18 -53 -15 -53 3 0 1 -6 -4 -12 -5 -7 -18 -40
-27 -73 -10 -33 -20 -67 -23 -75 -7 -19 -11 -29 -16 -55 -3 -11 -13 -49 -22
-85 -9 -36 -18 -69 -19 -75 -2 -5 -8 -36 -15 -67 -7 -32 -14 -70 -16 -85 -2
-16 -4 -29 -6 -30 -4 -6 -18 -81 -24 -131 -6 -45 -14 -103 -19 -129 -5 -23
-15 -107 -22 -178 -5 -56 -15 -162 -19 -210 -28 -315 -23 -1087 9 -1430 4 -40
-10 -73 -43 -105 -9 -8 -37 -40 -62 -70 -26 -30 -63 -73 -82 -95 -52 -58 -48
-52 -181 -218 -127 -158 -238 -305 -315 -417 -24 -36 -48 -66 -53 -68 -4 -2
-8 -8 -8 -12 0 -5 -29 -53 -63 -107 -137 -211 -269 -463 -342 -652 -34 -88
-106 -323 -104 -339 1 -4 0 -9 -1 -12 -3 -9 -10 -43 -16 -80 -10 -67 -13 -315
-3 -365 6 -27 12 -63 14 -80 5 -44 48 -163 86 -238 53 -108 144 -220 249 -308
55 -46 156 -119 164 -119 3 0 27 -13 53 -28 46 -27 233 -112 257 -116 6 -2 49
-14 96 -28 89 -28 211 -59 245 -63 11 -2 61 -10 110 -19 50 -8 108 -17 130
-20 326 -44 941 -40 1310 9 17 2 57 7 90 10 33 3 74 8 91 11 17 3 46 7 65 9
19 2 52 7 74 10 22 4 56 8 76 9 20 2 40 5 45 9 5 3 32 8 59 11 28 3 61 8 75
11 58 11 77 15 110 20 19 3 89 17 155 31 117 24 139 29 190 39 65 13 79 16 85
20 4 2 22 7 41 10 19 3 87 19 152 36 65 16 128 31 140 33 12 3 23 5 25 7 1 1
5 2 10 3 88 23 344 97 447 129 55 17 102 31 105 32 3 1 31 9 62 18 32 10 59
16 61 15 2 -2 10 2 18 8 8 6 28 15 44 19 17 5 32 9 35 10 3 1 19 5 35 10 17 4
35 11 40 16 6 4 22 10 35 13 29 6 178 59 230 83 19 8 46 17 60 20 13 2 29 8
35 12 5 5 28 14 50 21 39 13 268 103 350 139 104 45 130 56 135 57 9 1 129 55
270 121 62 29 461 228 494 246 11 7 29 18 39 26 9 8 17 10 17 5 0 -5 4 -4 8 2
4 6 36 27 71 45 35 19 71 39 80 44 9 6 34 21 56 34 133 80 351 216 355 222 3
3 16 12 29 19 14 7 30 17 35 21 6 5 62 44 124 87 152 105 141 97 250 180 54
40 108 80 121 90 13 9 28 22 35 27 6 6 34 28 61 50 28 22 52 42 55 45 3 3 30
25 60 50 87 71 90 74 114 95 121 107 187 167 227 205 26 25 71 68 100 96 82
78 287 292 349 364 30 35 60 68 65 74 14 15 118 139 128 151 43 57 93 121 97
125 3 3 17 21 30 40 13 19 27 37 30 40 3 3 19 25 35 50 17 25 35 50 41 57 7 7
43 61 80 120 38 59 72 110 76 111 5 2 8 12 8 23 0 10 4 19 9 19 5 0 13 10 17
23 4 12 10 24 14 27 21 13 231 451 245 510 2 8 18 55 35 103 17 49 42 134 55
190 46 193 54 263 50 467 -3 178 -5 199 -31 305 -28 112 -85 255 -126 319 -7
11 -27 43 -44 71 -18 28 -39 57 -48 64 -9 7 -16 18 -16 23 0 9 -128 140 -190
193 -50 44 -200 141 -283 184 -108 56 -292 131 -362 147 -5 2 -40 12 -77 23
-38 11 -68 17 -68 14 0 -3 -7 0 -15 7 -8 6 -19 9 -25 5 -5 -3 -10 -1 -10 5 0
6 -4 9 -8 6 -5 -3 -24 -1 -43 4 -19 5 -47 12 -64 14 -16 3 -55 10 -85 16 -30
5 -77 12 -105 15 -27 3 -61 8 -75 11 -14 3 -47 7 -75 9 -27 3 -70 7 -95 9 -92
10 -320 19 -487 19 l-172 1 -12 30 c-7 17 -15 33 -18 36 -3 3 -31 55 -61 115
-30 61 -57 112 -60 115 -3 3 -21 37 -40 75 -19 39 -37 72 -40 75 -3 3 -17 30
-33 60 -32 65 -75 142 -147 265 -29 50 -61 105 -72 124 -10 18 -63 99 -116
179 -53 79 -101 151 -107 160 -5 8 -17 25 -27 36 -9 12 -56 71 -104 131 -97
122 -219 254 -286 311 -57 48 -199 135 -223 135 -2 0 -22 6 -42 13 -67 23
-160 19 -243 -10z"/>
</g>
</svg>
